<?xml version="1.0" encoding="UTF-8"?>
<svg width="22px" height="22px" viewBox="0 0 22 22" version="1.1" xmlns="http://www.w3.org/2000/svg" xmlns:xlink="http://www.w3.org/1999/xlink">
    <!-- Generator: Sketch 49.3 (51167) - http://www.bohemiancoding.com/sketch -->
    <title>Shape</title>
    <desc>Created with Sketch.</desc>
    <defs></defs>
    <g id="Welcome" stroke="none" stroke-width="1" fill="none" fill-rule="evenodd">
        <g id="Desktop-HD-Copy-3" transform="translate(-10.000000, -518.000000)" fill="#FFFFFF" fill-rule="nonzero">
            <path d="M32,518 L32,534.116216 L17.3558282,534.116216 L17.3558282,532.750435 L30.6503067,532.750435 L30.6503067,519.365781 L11.3496933,519.365781 L11.3496933,536.700273 L15.0613497,532.949839 L16.0169325,533.916812 L10,540 L10,518 L32,518 Z M27.0736196,522.916812 L14.9263804,522.916812 L14.9263804,524.282593 L27.0736196,524.282593 L27.0736196,522.916812 Z M14.9263804,526.740998 L27.0736196,526.740998 L27.0736196,525.375217 L14.9263804,525.375217 L14.9263804,526.740998 Z M14.9263804,529.199404 L21,529.199404 L21,527.833623 L14.9263804,527.833623 L14.9263804,529.199404 Z" id="Shape"></path>
        </g>
    </g>
</svg>