<svg id="Layer_1" data-name="Layer 1" xmlns="http://www.w3.org/2000/svg" xmlns:xlink="http://www.w3.org/1999/xlink" viewBox="0 0 1745 885"><defs><style>.cls-1{clip-path:url(#clip-path);}.cls-2{clip-path:url(#clip-path-2);}</style><clipPath id="clip-path" transform="translate(8.87 466.82)"><path d="M6.06,12.37h6.07V11H6.06Zm0-2.45H18.2V8.55H6.06ZM18.2,6.09H6.06V7.46H18.2Zm4.93-4.91V17.29H8.48V15.93h13.3V2.54H2.48V19.88l3.71-3.75,1,1-6,6.09v-22Z"/></clipPath><clipPath id="clip-path-2" transform="translate(8.87 466.82)"><rect x="-8.87" y="-466.82" width="1745" height="885"/></clipPath></defs><title>COMMENT</title><path d="M6.06,12.37h6.07V11H6.06Zm0-2.45H18.2V8.55H6.06ZM18.2,6.09H6.06V7.46H18.2Zm4.93-4.91V17.29H8.48V15.93h13.3V2.54H2.48V19.88l3.71-3.75,1,1-6,6.09v-22Z" transform="translate(8.87 466.82)"/><g class="cls-1"><rect width="1745" height="885"/><g class="cls-2"><rect x="5" y="463" width="32" height="32"/></g></g></svg>