<svg id="Layer_1" data-name="Layer 1" xmlns="http://www.w3.org/2000/svg" xmlns:xlink="http://www.w3.org/1999/xlink" viewBox="0 0 1745 885" preserveAspectRatio="xMinYMin slice" style="width: 40px; height: 40px;"><defs><style>.cls-1{clip-path:url(#clip-path);}.cls-2{clip-path:url(#clip-path-2);}.cls-3{clip-path:url(#clip-path-3);}.cls-4{clip-path:url(#clip-path-5);}.cls-5{clip-path:url(#clip-path-7);}.cls-6{clip-path:url(#clip-path-9);}</style><clipPath id="clip-path" transform="translate(6.96 246.97)"><rect x="0.04" y="21.03" width="5" height="1"/></clipPath><clipPath id="clip-path-2" transform="translate(6.96 246.97)"><rect x="-6.96" y="-246.97" width="1745" height="885"/></clipPath><clipPath id="clip-path-3" transform="translate(6.96 246.97)"><rect x="14.04" y="21.03" width="7" height="1"/></clipPath><clipPath id="clip-path-5" transform="translate(6.96 246.97)"><rect x="6.04" y="21.03" width="7" height="1"/></clipPath><clipPath id="clip-path-7" transform="translate(6.96 246.97)"><path d="M22,5.35l-1.66,3A1.64,1.64,0,0,1,18.09,9a1.76,1.76,0,0,1-.62-2.35l1.66-3A1.63,1.63,0,0,1,21.4,3,1.75,1.75,0,0,1,22,5.35ZM17.45,2.66,7.11,21.3,5,25l7.07-3.74,6.5-3.43a2.34,2.34,0,0,1,0-2.31l5.09-9.2a3.8,3.8,0,0,0-1.48-4.83A3.54,3.54,0,0,0,17.45,2.66Z"/></clipPath><clipPath id="clip-path-9" transform="translate(6.96 246.97)"><rect x="23.04" y="21.03" width="5" height="1"/></clipPath></defs><title>CUT</title><rect x="7" y="268" width="5" height="1"/><g class="cls-1"><rect width="1745" height="885"/><g class="cls-2"><rect x="2" y="263" width="15" height="11"/></g></g><rect x="21" y="268" width="7" height="1"/><g class="cls-3"><rect width="1745" height="885"/><g class="cls-2"><rect x="16" y="263" width="17" height="11"/></g></g><rect x="13" y="268" width="7" height="1"/><g class="cls-4"><rect width="1745" height="885"/><g class="cls-2"><rect x="8" y="263" width="17" height="11"/></g></g><path d="M22,5.35l-1.66,3A1.64,1.64,0,0,1,18.09,9a1.76,1.76,0,0,1-.62-2.35l1.66-3A1.63,1.63,0,0,1,21.4,3,1.75,1.75,0,0,1,22,5.35ZM17.45,2.66,7.11,21.3,5,25l7.07-3.74,6.5-3.43a2.34,2.34,0,0,1,0-2.31l5.09-9.2a3.8,3.8,0,0,0-1.48-4.83A3.54,3.54,0,0,0,17.45,2.66Z" transform="translate(6.96 246.97)"/><g class="cls-5"><rect width="1745" height="885"/><g class="cls-2"><rect x="7" y="243" width="29" height="34"/></g></g><rect x="30" y="268" width="5" height="1"/><g class="cls-6"><rect width="1745" height="885"/><g class="cls-2"><rect x="25" y="263" width="15" height="11"/></g></g></svg>