<?xml version="1.0" encoding="UTF-8"?>
<svg width="28px" height="24px" viewBox="0 0 28 24" version="1.1" xmlns="http://www.w3.org/2000/svg" xmlns:xlink="http://www.w3.org/1999/xlink">
    <!-- Generator: Sketch 49.3 (51167) - http://www.bohemiancoding.com/sketch -->
    <title>Group 4 Copy 6</title>
    <desc>Created with Sketch.</desc>
    <defs></defs>
    <g id="Welcome" stroke="none" stroke-width="1" fill="none" fill-rule="evenodd">
        <g id="Group-4-Copy-6" fill="#4FC3F7" fill-rule="nonzero">
            <rect id="Rectangle-path" x="0" y="20" width="5" height="1"></rect>
            <rect id="Rectangle-path" x="14" y="20" width="7" height="1"></rect>
            <rect id="Rectangle-path" x="6" y="20" width="7" height="1"></rect>
            <path d="M17.409031,1.63335265 L7.0628533,20.2772369 L5,24 L12.0634827,20.2654958 L18.5628303,16.8290991 C18.5628303,16.8290991 17.8749351,15.762957 18.5633853,14.5204132 C19.2518356,13.2772967 23.6597485,5.32203819 23.6597485,5.32203819 C24.4486497,3.57377135 23.8290168,1.46353738 22.1810095,0.491037095 C20.5327248,-0.481749552 18.4562746,0.0380054568 17.409031,1.63335265 Z M21.9734478,4.32720133 L20.3204457,7.31028008 C19.8639763,8.13386984 18.8469791,8.41994986 18.0486432,7.94887714 C17.2503073,7.47780442 16.9733733,6.42827158 17.4298427,5.60439546 L19.0825673,2.62131671 C19.5393142,1.79744059 20.5563114,1.51164693 21.3546473,1.98271965 C22.1527057,2.45350601 22.4299172,3.50332521 21.9734478,4.32720133 Z" id="Shape"></path>
            <rect id="Rectangle-path" x="23" y="20" width="5" height="1"></rect>
        </g>
    </g>
</svg>