<?xml version="1.0" encoding="UTF-8"?>
<svg width="24px" height="24px" viewBox="0 0 24 24" version="1.1" xmlns="http://www.w3.org/2000/svg" xmlns:xlink="http://www.w3.org/1999/xlink">
    <!-- Generator: Sketch 49.3 (51167) - http://www.bohemiancoding.com/sketch -->
    <title>Group 6 Copy</title>
    <desc>Created with Sketch.</desc>
    <defs></defs>
    <g id="Welcome" stroke="none" stroke-width="1" fill="none" fill-rule="evenodd">
        <g id="Group-6-Copy" fill="#4FC3F7" fill-rule="nonzero">
            <path d="M18.0324372,24 C17.8994385,24 17.7724399,23.9475003 17.6789408,23.8535008 L0.146623473,6.32109208 C-0.0488744909,6.1255931 -0.0488744909,5.80959474 0.146623473,5.61409576 L5.61406652,0.146624236 C5.80956448,-0.0488747454 6.12556119,-0.0488747454 6.32105916,0.146624236 L23.8533765,17.6785329 C24.0488745,17.8740319 24.0488745,18.1900303 23.8533765,18.3855292 L18.3859335,23.8535008 C18.2924345,23.9475003 18.1654358,24 18.0324372,24 Z M1.20761242,5.96759392 L18.0329372,22.7930063 L22.7933876,18.0325311 L5.96756284,1.20711871 L1.20761242,5.96759392 Z" id="Shape"></path>
            <path d="M6.42075928,4 C6.31307183,4 6.20538437,3.9587824 6.12335682,3.87676778 C5.95888106,3.71273855 5.95888106,3.44650649 6.12335682,3.28205667 L7.28183826,2.12333736 C7.44589336,1.95888755 7.71216742,1.95888755 7.87664318,2.12333736 C8.04111894,2.28736659 8.04111894,2.55359865 7.87664318,2.71804847 L6.71816174,3.87676778 C6.63613419,3.9587824 6.52844673,4 6.42075928,4 Z" id="Shape"></path>
            <path d="M7.53961832,9 C7.40151055,9 7.26340279,8.94713597 7.15820352,8.84194734 C6.94726549,8.63157008 6.94726549,8.29011159 7.15820352,8.0791949 L10.0789669,5.15818752 C10.2899049,4.94727083 10.6308585,4.94727083 10.8417965,5.15818752 C11.0527345,5.36856478 11.0527345,5.71002326 10.8417965,5.92093995 L7.92103311,8.84194734 C7.81583384,8.94713597 7.67772608,9 7.53961832,9 Z" id="Shape"></path>
            <path d="M11.4207593,9 C11.3130718,9 11.2053844,8.9587824 11.1233568,8.87676778 C10.9588811,8.71273855 10.9588811,8.44650649 11.1233568,8.28205667 L12.2818383,7.12333736 C12.446314,6.95888755 12.7121674,6.95888755 12.8766432,7.12333736 C13.0411189,7.28736659 13.0411189,7.55359865 12.8766432,7.71804847 L11.7181617,8.87676778 C11.6361342,8.9587824 11.5284467,9 11.4207593,9 Z" id="Shape"></path>
            <path d="M13.5396911,14 C13.4015647,14 13.2634383,13.947136 13.1582249,13.8419473 C12.9472584,13.6310306 12.9472584,13.2901116 13.1582249,13.0791949 L16.0788427,10.1581875 C16.2898091,9.94727083 16.6308087,9.94727083 16.8417751,10.1581875 C17.0527416,10.3685648 17.0527416,10.7100233 16.8417751,10.92094 L13.9211573,13.8419473 C13.8159439,13.947136 13.6778175,14 13.5396911,14 Z" id="Shape"></path>
            <path d="M17.4207593,15 C17.3130718,15 17.2053844,14.9587737 17.1233568,14.8767419 C16.9588811,14.7122575 16.9588811,14.4463901 17.1233568,14.2819057 L18.2818383,13.1233633 C18.446314,12.9588789 18.7121674,12.9588789 18.8766432,13.1233633 C19.0411189,13.2878477 19.0411189,13.5537151 18.8766432,13.7181995 L17.7181617,14.8767419 C17.6357135,14.9587737 17.5280261,15 17.4207593,15 Z" id="Shape"></path>
            <path d="M18.5396183,19 C18.4015106,19 18.2634028,18.9471146 18.1582035,18.8418834 C17.9472655,18.6308813 17.9472655,18.2898243 18.1582035,18.0788222 L21.0789669,15.1582515 C21.2899049,14.9472495 21.6308585,14.9472495 21.8417965,15.1582515 C22.0527345,15.3692536 22.0527345,15.7103106 21.8417965,15.9213127 L18.9210331,18.8418834 C18.8158338,18.9471146 18.6777261,19 18.5396183,19 Z" id="Shape"></path>
        </g>
    </g>
</svg>