<svg id="Layer_1" data-name="Layer 1" xmlns="http://www.w3.org/2000/svg" xmlns:xlink="http://www.w3.org/1999/xlink" viewBox="0 0 1745 885"><defs><style>.cls-1{clip-path:url(#clip-path);}.cls-2{clip-path:url(#clip-path-2);}.cls-3{clip-path:url(#clip-path-3);}.cls-4{clip-path:url(#clip-path-5);}.cls-5{clip-path:url(#clip-path-7);}.cls-6{clip-path:url(#clip-path-9);}.cls-7{clip-path:url(#clip-path-11);}.cls-8{clip-path:url(#clip-path-13);}</style><clipPath id="clip-path" transform="translate(8.91 357.85)"><path d="M1.29,6.12,18.12,22.94l4.76-4.76L6.05,1.36Zm16.83,18a.49.49,0,0,1-.36-.15L.23,6.47a.51.51,0,0,1,0-.71L5.7.3a.5.5,0,0,1,.71,0L23.94,17.83a.5.5,0,0,1,0,.7L18.47,24A.47.47,0,0,1,18.12,24.15Z"/></clipPath><clipPath id="clip-path-2" transform="translate(8.91 357.85)"><rect x="-8.91" y="-357.85" width="1745" height="885"/></clipPath><clipPath id="clip-path-3" transform="translate(8.91 357.85)"><path d="M6.74,4.82a.51.51,0,0,1-.36-.15.51.51,0,0,1,0-.71L7.76,2.59a.5.5,0,0,1,.71,0,.5.5,0,0,1,0,.7L7.09,4.67A.49.49,0,0,1,6.74,4.82Z"/></clipPath><clipPath id="clip-path-5" transform="translate(8.91 357.85)"><path d="M8,8.78a.54.54,0,0,1-.35-.14.5.5,0,0,1,0-.71L10.4,5.22a.5.5,0,0,1,.7,0,.5.5,0,0,1,0,.71L8.4,8.64A.54.54,0,0,1,8,8.78Z"/></clipPath><clipPath id="clip-path-7" transform="translate(8.91 357.85)"><path d="M12,10.09a.47.47,0,0,1-.35-.15.48.48,0,0,1,0-.7L13,7.86a.5.5,0,0,1,.71,0,.51.51,0,0,1,0,.71L12.36,9.94A.49.49,0,0,1,12,10.09Z"/></clipPath><clipPath id="clip-path-9" transform="translate(8.91 357.85)"><path d="M13.32,14.06a.51.51,0,0,1-.36-.15.51.51,0,0,1,0-.71l2.71-2.71a.5.5,0,0,1,.71.71l-2.71,2.71A.5.5,0,0,1,13.32,14.06Z"/></clipPath><clipPath id="clip-path-11" transform="translate(8.91 357.85)"><path d="M17.28,15.36a.47.47,0,0,1-.35-.15.48.48,0,0,1,0-.7l1.37-1.38a.5.5,0,1,1,.71.71l-1.38,1.37A.47.47,0,0,1,17.28,15.36Z"/></clipPath><clipPath id="clip-path-13" transform="translate(8.91 357.85)"><path d="M18.59,19.33a.51.51,0,0,1-.36-.15.51.51,0,0,1,0-.71l2.71-2.7a.5.5,0,0,1,.71,0,.5.5,0,0,1,0,.7l-2.71,2.71A.5.5,0,0,1,18.59,19.33Z"/></clipPath></defs><title>MEASURE</title><path d="M1.29,6.12,18.12,22.94l4.76-4.76L6.05,1.36Zm16.83,18a.49.49,0,0,1-.36-.15L.23,6.47a.51.51,0,0,1,0-.71L5.7.3a.5.5,0,0,1,.71,0L23.94,17.83a.5.5,0,0,1,0,.7L18.47,24A.47.47,0,0,1,18.12,24.15Z" transform="translate(8.91 357.85)"/><g class="cls-1"><rect width="1745" height="885"/><g class="cls-2"><rect x="4" y="353" width="34" height="34"/></g></g><path d="M6.74,4.82a.51.51,0,0,1-.36-.15.51.51,0,0,1,0-.71L7.76,2.59a.5.5,0,0,1,.71,0,.5.5,0,0,1,0,.7L7.09,4.67A.49.49,0,0,1,6.74,4.82Z" transform="translate(8.91 357.85)"/><g class="cls-3"><rect width="1745" height="885"/><g class="cls-2"><rect x="10.15" y="355.29" width="12.38" height="12.38"/></g></g><path d="M8,8.78a.54.54,0,0,1-.35-.14.5.5,0,0,1,0-.71L10.4,5.22a.5.5,0,0,1,.7,0,.5.5,0,0,1,0,.71L8.4,8.64A.54.54,0,0,1,8,8.78Z" transform="translate(8.91 357.85)"/><g class="cls-4"><rect width="1745" height="885"/><g class="cls-2"><rect x="11.46" y="357.93" width="13.71" height="13.71"/></g></g><path d="M12,10.09a.47.47,0,0,1-.35-.15.48.48,0,0,1,0-.7L13,7.86a.5.5,0,0,1,.71,0,.51.51,0,0,1,0,.71L12.36,9.94A.49.49,0,0,1,12,10.09Z" transform="translate(8.91 357.85)"/><g class="cls-5"><rect width="1745" height="885"/><g class="cls-2"><rect x="15.42" y="360.56" width="12.38" height="12.38"/></g></g><path d="M13.32,14.06a.51.51,0,0,1-.36-.15.51.51,0,0,1,0-.71l2.71-2.71a.5.5,0,0,1,.71.71l-2.71,2.71A.5.5,0,0,1,13.32,14.06Z" transform="translate(8.91 357.85)"/><g class="cls-6"><rect width="1745" height="885"/><g class="cls-2"><rect x="16.73" y="363.2" width="13.71" height="13.71"/></g></g><path d="M17.28,15.36a.47.47,0,0,1-.35-.15.48.48,0,0,1,0-.7l1.37-1.38a.5.5,0,1,1,.71.71l-1.38,1.37A.47.47,0,0,1,17.28,15.36Z" transform="translate(8.91 357.85)"/><g class="cls-7"><rect width="1745" height="885"/><g class="cls-2"><rect x="20.7" y="365.83" width="12.38" height="12.38"/></g></g><path d="M18.59,19.33a.51.51,0,0,1-.36-.15.51.51,0,0,1,0-.71l2.71-2.7a.5.5,0,0,1,.71,0,.5.5,0,0,1,0,.7l-2.71,2.71A.5.5,0,0,1,18.59,19.33Z" transform="translate(8.91 357.85)"/><g class="cls-8"><rect width="1745" height="885"/><g class="cls-2"><rect x="22" y="368.47" width="13.71" height="13.71"/></g></g></svg>