<svg id="Layer_1" data-name="Layer 1" xmlns="http://www.w3.org/2000/svg" xmlns:xlink="http://www.w3.org/1999/xlink" viewBox="0 0 1745 885"><defs><style>.cls-1{clip-path:url(#clip-path);}.cls-2{clip-path:url(#clip-path-2);}.cls-3{clip-path:url(#clip-path-3);}</style><clipPath id="clip-path" transform="translate(8.02 137.97)"><path d="M13,26a.27.27,0,0,0,.12,0h0l0,0h0l.08-.07,3.56-4.09a.56.56,0,0,0,0-.71.41.41,0,0,0-.63,0l-2.8,3.22V1.75L16.22,5a.42.42,0,0,0,.63,0,.57.57,0,0,0,0-.72L13.29.18,13.21.11l0,0h0l0,0,0,0h0L13,0l-.13,0h0l0,0-.05,0h0l0,0-.08.06L9.1,4.26A.57.57,0,0,0,9.1,5a.42.42,0,0,0,.63,0l2.8-3.23V24.3l-2.8-3.22a.41.41,0,0,0-.63,0,.56.56,0,0,0,0,.71l3.56,4.09.08.07h0l.05,0h0A.28.28,0,0,0,13,26Z"/></clipPath><clipPath id="clip-path-2" transform="translate(8.02 137.97)"><rect x="-8.02" y="-137.97" width="1745" height="885"/></clipPath><clipPath id="clip-path-3" transform="translate(8.02 137.97)"><path d="M26,13a.28.28,0,0,0,0-.13h0v0l0,0h0l0,0-.06-.07L21.74,9.16a.53.53,0,0,0-.71,0,.4.4,0,0,0,0,.62l3.22,2.81H1.7L4.92,9.78a.4.4,0,0,0,0-.62.53.53,0,0,0-.71,0L.12,12.72l-.06.07,0,0H0l0,0v0H0A.27.27,0,0,0,0,13a.25.25,0,0,0,0,.12H0s0,0,0,0l0,0H0l0,0,.06.08L4.21,16.9a.56.56,0,0,0,.71,0,.41.41,0,0,0,0-.63L1.7,13.47H24.25L21,16.27a.41.41,0,0,0,0,.63.56.56,0,0,0,.71,0l4.09-3.56.06-.08,0,0h0l0,0s0,0,0,0h0A.27.27,0,0,0,26,13Z"/></clipPath></defs><title>MOVE</title><path d="M13,26a.27.27,0,0,0,.12,0h0l0,0h0l.08-.07,3.56-4.09a.56.56,0,0,0,0-.71.41.41,0,0,0-.63,0l-2.8,3.22V1.75L16.22,5a.42.42,0,0,0,.63,0,.57.57,0,0,0,0-.72L13.29.18,13.21.11l0,0h0l0,0,0,0h0L13,0l-.13,0h0l0,0-.05,0h0l0,0-.08.06L9.1,4.26A.57.57,0,0,0,9.1,5a.42.42,0,0,0,.63,0l2.8-3.23V24.3l-2.8-3.22a.41.41,0,0,0-.63,0,.56.56,0,0,0,0,.71l3.56,4.09.08.07h0l.05,0h0A.28.28,0,0,0,13,26Z" transform="translate(8.02 137.97)"/><g class="cls-1"><rect width="1745" height="885"/><g class="cls-2"><rect x="12" y="133" width="18" height="36"/></g></g><path d="M26,13a.28.28,0,0,0,0-.13h0v0l0,0h0l0,0-.06-.07L21.74,9.16a.53.53,0,0,0-.71,0,.4.4,0,0,0,0,.62l3.22,2.81H1.7L4.92,9.78a.4.4,0,0,0,0-.62.53.53,0,0,0-.71,0L.12,12.72l-.06.07,0,0H0l0,0v0H0A.27.27,0,0,0,0,13a.25.25,0,0,0,0,.12H0s0,0,0,0l0,0H0l0,0,.06.08L4.21,16.9a.56.56,0,0,0,.71,0,.41.41,0,0,0,0-.63L1.7,13.47H24.25L21,16.27a.41.41,0,0,0,0,.63.56.56,0,0,0,.71,0l4.09-3.56.06-.08,0,0h0l0,0s0,0,0,0h0A.27.27,0,0,0,26,13Z" transform="translate(8.02 137.97)"/><g class="cls-3"><rect width="1745" height="885"/><g class="cls-2"><rect x="3" y="142" width="36" height="18"/></g></g></svg>