<svg id="Layer_1" data-name="Layer 1" xmlns="http://www.w3.org/2000/svg" xmlns:xlink="http://www.w3.org/1999/xlink" viewBox="0 0 1745 885"><defs><style>.cls-1{clip-path:url(#clip-path);}.cls-2{clip-path:url(#clip-path-2);}</style><clipPath id="clip-path" transform="translate(6.12 577.22)"><path d="M15.29,12.29a.6.6,0,0,0-.53.6v1.78H13a.59.59,0,0,0-.52.89.61.61,0,0,0,.52.29h2.36a.59.59,0,0,0,.59-.59V12.89a.53.53,0,0,0-.19-.44A.61.61,0,0,0,15.29,12.29Zm-8.86,0a.6.6,0,0,0-.53.6v2.37a.59.59,0,0,0,.59.59H8.85a.6.6,0,0,0,.52-.29.59.59,0,0,0,0-.6.58.58,0,0,0-.52-.29H7.08V12.89a.56.56,0,0,0-.19-.44A.61.61,0,0,0,6.43,12.29Zm6.5-6.49a.6.6,0,0,0-.47.91A.61.61,0,0,0,13,7h1.77V8.76a.61.61,0,0,0,.29.52.64.64,0,0,0,.6,0,.59.59,0,0,0,.29-.52V6.4a.59.59,0,0,0-.59-.6H12.93Zm-6.49,0a.6.6,0,0,0-.54.6V8.76a.61.61,0,0,0,.29.52.64.64,0,0,0,.6,0,.61.61,0,0,0,.29-.52V7H8.85a.59.59,0,0,0,.52-.3.57.57,0,0,0,0-.59.59.59,0,0,0-.52-.3H6.44Zm4.48-5a10,10,0,0,0-3.5,19.46A.59.59,0,0,0,8,20.16a.59.59,0,0,0-.2-1,8.85,8.85,0,1,1,3.09.56.61.61,0,0,0-.52.29.59.59,0,0,0,0,.6.61.61,0,0,0,.52.29,10,10,0,0,0,6.67-2.54l8.27,8.27a.59.59,0,0,0,1-.26.62.62,0,0,0-.16-.58l-8.28-8.27A10,10,0,0,0,10.92.78Z"/></clipPath><clipPath id="clip-path-2" transform="translate(6.12 577.22)"><rect x="-6.12" y="-577.22" width="1745" height="885"/></clipPath></defs><title>ZOOM</title><path d="M15.29,12.29a.6.6,0,0,0-.53.6v1.78H13a.59.59,0,0,0-.52.89.61.61,0,0,0,.52.29h2.36a.59.59,0,0,0,.59-.59V12.89a.53.53,0,0,0-.19-.44A.61.61,0,0,0,15.29,12.29Zm-8.86,0a.6.6,0,0,0-.53.6v2.37a.59.59,0,0,0,.59.59H8.85a.6.6,0,0,0,.52-.29.59.59,0,0,0,0-.6.58.58,0,0,0-.52-.29H7.08V12.89a.56.56,0,0,0-.19-.44A.61.61,0,0,0,6.43,12.29Zm6.5-6.49a.6.6,0,0,0-.47.91A.61.61,0,0,0,13,7h1.77V8.76a.61.61,0,0,0,.29.52.64.64,0,0,0,.6,0,.59.59,0,0,0,.29-.52V6.4a.59.59,0,0,0-.59-.6H12.93Zm-6.49,0a.6.6,0,0,0-.54.6V8.76a.61.61,0,0,0,.29.52.64.64,0,0,0,.6,0,.61.61,0,0,0,.29-.52V7H8.85a.59.59,0,0,0,.52-.3.57.57,0,0,0,0-.59.59.59,0,0,0-.52-.3H6.44Zm4.48-5a10,10,0,0,0-3.5,19.46A.59.59,0,0,0,8,20.16a.59.59,0,0,0-.2-1,8.85,8.85,0,1,1,3.09.56.61.61,0,0,0-.52.29.59.59,0,0,0,0,.6.61.61,0,0,0,.52.29,10,10,0,0,0,6.67-2.54l8.27,8.27a.59.59,0,0,0,1-.26.62.62,0,0,0-.16-.58l-8.28-8.27A10,10,0,0,0,10.92.78Z" transform="translate(6.12 577.22)"/><g class="cls-1"><rect width="1745" height="885"/><g class="cls-2"><rect x="2" y="573" width="36" height="36"/></g></g></svg>